HIERARCHY
ROOT Hips
{
	OFFSET 0.000000 0.000000 0.000000
	CHANNELS 6 Xposition Yposition Zposition Xrotation Yrotation Zrotation
	JOINT LeftUpLeg_virtual
	{
		OFFSET 0.000000 0.000000 0.000000
		CHANNELS 3 Xrotation Yrotation Zrotation
		JOINT LeftUpLeg
		{
			OFFSET 15.427100 -6.655098 0.678600
			CHANNELS 3 Xrotation Yrotation Zrotation
			JOINT LeftLeg
			{
				OFFSET 4.081073 -39.591068 13.024000
				CHANNELS 3 Xrotation Yrotation Zrotation
				JOINT LeftFoot
				{
					OFFSET -4.081074 -37.707932 -15.979700
					CHANNELS 3 Xrotation Yrotation Zrotation
					JOINT LeftToeBase
					{
						OFFSET 5.346399 -15.068900 20.645000
						CHANNELS 3 Xrotation Yrotation Zrotation
						JOINT LeftToe_End
						{
							OFFSET 2.754700 0.931300 11.300900
							CHANNELS 3 Xrotation Yrotation Zrotation
							End Site
							{
								OFFSET 0 0 0
							}
						}
					}
				}
			}
		}
	}
	JOINT RightUpLeg_virtual
	{
		OFFSET 0.000000 0.000000 0.000000
		CHANNELS 3 Xrotation Yrotation Zrotation
		JOINT RightUpLeg
		{
			OFFSET -15.569500 -6.655098 0.678600
			CHANNELS 3 Xrotation Yrotation Zrotation
			JOINT RightLeg
			{
				OFFSET -4.081825 -39.591045 13.023800
				CHANNELS 3 Xrotation Yrotation Zrotation
				JOINT RightFoot
				{
					OFFSET 4.081824 -37.707954 -15.979600
					CHANNELS 3 Xrotation Yrotation Zrotation
					JOINT RightToeBase
					{
						OFFSET -5.346400 -15.068900 20.645000
						CHANNELS 3 Xrotation Yrotation Zrotation
						JOINT RightToe_End
						{
							OFFSET -2.754700 0.931300 11.300900
							CHANNELS 3 Xrotation Yrotation Zrotation
							End Site
							{
								OFFSET 0 0 0
							}
						}
					}
				}
			}
		}
	}
	JOINT Spine_virtual
	{
		OFFSET 0.000000 0.000000 0.000000
		CHANNELS 3 Xrotation Yrotation Zrotation
		JOINT Spine
		{
			OFFSET -0.279200 12.230698 -2.892100
			CHANNELS 3 Xrotation Yrotation Zrotation
			JOINT Spine1
			{
				OFFSET -0.232667 10.192268 -1.242267
				CHANNELS 3 Xrotation Yrotation Zrotation
				JOINT Spine1_split
				{
					OFFSET -0.232667 10.192268 -1.242267
					CHANNELS 3 Xrotation Yrotation Zrotation
					JOINT Spine2
					{
						OFFSET -0.232667 10.192268 -1.242267
						CHANNELS 3 Xrotation Yrotation Zrotation
						JOINT Neck_virtual
						{
							OFFSET 0.000000 0.000000 0.000000
							CHANNELS 3 Xrotation Yrotation Zrotation
							JOINT Neck
							{
								OFFSET -0.418800 17.814194 8.416900
								CHANNELS 3 Xrotation Yrotation Zrotation
								JOINT Head
								{
									OFFSET 0.000000 7.031097 3.806800
									CHANNELS 3 Xrotation Yrotation Zrotation
									JOINT HeadTop_End
									{
										OFFSET 0.000000 24.646606 12.978600
										CHANNELS 3 Xrotation Yrotation Zrotation
										End Site
										{
											OFFSET 0 0 0
										}
									}
								}
							}
						}
						JOINT LeftShoulder_virtual
						{
							OFFSET 0.000000 0.000000 0.000000
							CHANNELS 3 Xrotation Yrotation Zrotation
							JOINT LeftShoulder
							{
								OFFSET 8.476499 7.247704 -3.868750
								CHANNELS 3 Xrotation Yrotation Zrotation
								JOINT LeftShoulder_split
								{
									OFFSET 8.476499 7.247704 -3.868750
									CHANNELS 3 Xrotation Yrotation Zrotation
									JOINT LeftArm
									{
										OFFSET 9.308998 -2.777710 0.208600
										CHANNELS 3 Xrotation Yrotation Zrotation
										JOINT LeftForeArm
										{
											OFFSET 29.972298 0.000000 0.000000
											CHANNELS 3 Xrotation Yrotation Zrotation
											JOINT LeftHand
											{
												OFFSET 26.026505 0.000000 0.000000
												CHANNELS 3 Xrotation Yrotation Zrotation
												End Site
												{
													OFFSET 0 0 0
												}
											}
										}
									}
								}
							}
						}
						JOINT RightShoulder_virtual
						{
							OFFSET 0.000000 0.000000 0.000000
							CHANNELS 3 Xrotation Yrotation Zrotation
							JOINT RightShoulder
							{
								OFFSET -7.570500 7.247704 -3.868750
								CHANNELS 3 Xrotation Yrotation Zrotation
								JOINT RightShoulder_split
								{
									OFFSET -7.570500 7.247704 -3.868750
									CHANNELS 3 Xrotation Yrotation Zrotation
									JOINT RightArm
									{
										OFFSET -9.308998 -2.777710 0.208500
										CHANNELS 3 Xrotation Yrotation Zrotation
										JOINT RightForeArm
										{
											OFFSET -29.972300 0.000000 0.000000
											CHANNELS 3 Xrotation Yrotation Zrotation
											JOINT RightHand
											{
												OFFSET -26.026505 0.000000 0.000000
												CHANNELS 3 Xrotation Yrotation Zrotation
												End Site
												{
													OFFSET 0 0 0
												}
											}
										}
									}
								}
							}
						}
					}
				}
			}
		}
	}
}
MOTION
Frames: 5
Frame Time: 0.03333333
0.692166 69.769028 -7.987286 0.000000 0.000000 0.000000 -14.377659 4.347130 1.653589 -29.500065 -3.498242 15.241649 65.246038 -0.821387 0.153467 -26.195546 -1.714318 -14.124473 -2.869889 -0.349843 -0.311201 0.000000 0.000000 0.000000 -13.401185 2.157290 1.408859 -22.795505 -1.232505 -23.449960 66.576142 5.639783 1.815261 -32.798261 -5.729479 14.227528 1.003387 1.152971 0.554885 0.000000 0.000000 0.000000 -12.934694 3.275955 1.486850 25.166848 -3.274163 -0.115508 16.645089 -0.238604 0.478830 -0.084923 1.112085 0.286056 0.000000 0.000000 0.000000 17.750331 -0.266723 0.665211 8.458766 -4.091084 1.217276 -12.357180 -2.259300 -3.991509 0.000000 0.000000 0.000000 18.324103 -0.436919 0.325574 0.701079 -19.308487 -4.197995 -1.437597 -1.581951 -4.524316 -29.176632 -0.046193 -59.970024 -135.363722 -77.032390 -133.330675 0.000000 0.000000 0.000000 18.059437 -0.037694 0.796294 7.383219 3.014770 21.497356 2.452833 3.420534 3.963966 -31.005903 9.972744 42.490358 -103.677607 63.127060 94.597328 0.000000 0.000000 0.000000 
0.552891 70.218163 -7.631702 0.000000 0.000000 0.000000 -15.211847 3.942801 1.382352 -27.827183 -3.645736 15.511677 64.446708 -0.679888 0.277671 -26.301337 -1.553334 -13.936678 -3.016899 -0.332386 -0.267025 0.000000 0.000000 0.000000 -14.303628 2.227966 1.190797 -21.336727 -1.199676 -22.805916 66.090072 5.517810 1.751467 -32.904078 -5.839752 14.174538 0.957961 1.142781 0.609703 0.000000 0.000000 0.000000 -14.208453 2.869973 1.345135 24.799184 -3.010287 -0.239127 16.116455 -0.175330 0.573897 -0.335454 0.720625 0.299690 0.000000 0.000000 0.000000 16.997341 -0.204089 0.670130 8.165407 -3.930639 0.600537 -11.797046 -1.859446 -3.558377 0.000000 0.000000 0.000000 18.076722 -0.512753 0.426618 0.545074 -19.546555 -5.334792 -0.749859 -1.956011 -3.985037 -26.917799 -1.629594 -60.272547 -130.950258 -79.893781 -128.873689 0.000000 0.000000 0.000000 17.529687 0.029551 0.938910 7.363327 3.330229 21.802261 2.081285 2.678256 4.097126 -28.202235 8.287396 40.886373 -102.645107 63.003646 93.150338 0.000000 0.000000 0.000000 
0.359353 70.848312 -7.335217 0.000000 0.000000 0.000000 -16.131951 3.519525 1.105370 -25.996048 -3.911359 15.867230 63.288396 -0.591301 0.427939 -26.191226 -1.462975 -13.862384 -3.092628 -0.323683 -0.219279 0.000000 0.000000 0.000000 -15.325416 2.273155 0.990152 -19.609519 -1.439411 -22.102694 65.219168 5.374141 1.724138 -32.950062 -5.976484 14.101858 0.864691 1.140058 0.669051 0.000000 0.000000 0.000000 -15.554030 2.705374 1.116408 24.162170 -2.690450 -0.274419 15.744491 -0.152469 0.712777 -0.328435 0.760000 0.367012 0.000000 0.000000 0.000000 16.418468 -0.200561 0.698081 7.751454 -3.658486 -0.121193 -11.450918 -1.353803 -3.043389 0.000000 0.000000 0.000000 17.904038 -0.601576 0.622511 0.415847 -20.214331 -6.434845 -0.713750 -2.216650 -3.700970 -24.186581 -4.058198 -59.648903 -122.004350 -82.206934 -119.373088 0.000000 0.000000 0.000000 17.057279 -0.011983 1.128607 7.169198 3.491339 22.192500 1.283984 2.600610 4.014503 -24.505399 7.850780 39.119512 -104.017395 64.150318 94.160407 0.000000 0.000000 0.000000 
0.139017 71.570847 -7.068718 0.000000 0.000000 0.000000 -17.010282 3.125763 0.869104 -24.171090 -4.241548 16.255497 61.895577 -0.549727 0.559828 -25.887073 -1.438481 -13.872005 -3.090507 -0.328481 -0.153577 0.000000 0.000000 0.000000 -16.366974 2.230065 0.841935 -17.873150 -1.912043 -21.439930 64.059989 5.234039 1.742780 -32.872614 -6.122684 14.033868 0.719641 1.144746 0.706950 0.000000 0.000000 0.000000 -16.771031 2.832296 0.873760 23.455595 -2.381474 -0.232632 15.460512 -0.178043 0.844483 0.098010 1.180387 0.611162 0.000000 0.000000 0.000000 15.990463 -0.244748 0.734185 7.017847 -3.278964 -0.830474 -11.464551 -0.862357 -2.433822 0.000000 0.000000 0.000000 17.645131 -0.692781 0.869035 0.370205 -20.992585 -7.231724 -1.061789 -2.385589 -3.814300 -21.907871 -6.327636 -58.304865 -114.423154 -83.580636 -110.770423 0.000000 0.000000 0.000000 16.598277 -0.148418 1.313935 6.888348 3.362312 22.604745 0.213761 2.806503 3.934098 -20.376138 8.116519 37.984881 -106.968556 66.342468 96.700643 0.000000 0.000000 0.000000 
-0.053280 72.300346 -6.836998 0.000000 0.000000 0.000000 -17.755487 2.810219 0.709685 -22.549007 -4.581938 16.598731 60.465534 -0.514344 0.641102 -25.457339 -1.424670 -13.900512 -3.016861 -0.335595 -0.091054 0.000000 0.000000 0.000000 -17.282409 2.128042 0.741712 -16.293990 -2.524690 -20.869769 62.745280 5.115421 1.810987 -32.721036 -6.275848 13.965263 0.579114 1.155087 0.709197 0.000000 0.000000 0.000000 -17.786934 3.136865 0.693562 22.804721 -2.136120 -0.133521 15.154240 -0.257039 0.924690 0.699335 1.577038 0.786159 0.000000 0.000000 0.000000 15.594193 -0.330248 0.777576 5.892802 -2.781234 -1.387285 -11.921498 -0.534037 -1.749215 0.000000 0.000000 0.000000 17.235895 -0.777473 1.079913 0.403390 -21.600791 -7.774777 -1.799554 -2.361123 -4.477658 -20.094068 -7.746810 -56.932625 -115.120940 -84.546376 -110.196988 0.000000 0.000000 0.000000 16.096767 -0.342141 1.425414 6.594926 2.954807 23.032095 -0.650234 3.224360 3.763315 -16.381628 8.409186 37.803277 -110.851696 69.226583 100.026215 0.000000 0.000000 0.000000 
